<?xml version="1.0" encoding="UTF-8" standalone="no"?>
<!-- Created with Inkscape (http://www.inkscape.org/) -->

<svg
   xmlns:dc="http://purl.org/dc/elements/1.1/"
   xmlns:cc="http://creativecommons.org/ns#"
   xmlns:rdf="http://www.w3.org/1999/02/22-rdf-syntax-ns#"
   xmlns:svg="http://www.w3.org/2000/svg"
   xmlns="http://www.w3.org/2000/svg"
   version="1.1"
   width="238"
   height="300"
   id="svg2">
  <defs
     id="defs4" />
  <metadata
     id="metadata7">
    <rdf:RDF>
      <cc:Work
         rdf:about="">
        <dc:format>image/svg+xml</dc:format>
        <dc:type
           rdf:resource="http://purl.org/dc/dcmitype/StillImage" />
        <dc:title></dc:title>
      </cc:Work>
    </rdf:RDF>
  </metadata>
  <g
     transform="matrix(2.204673934470351,0,0,2.204673934470351,-35.32739055778115,2.285895719265454)"
     id="g816"
     style="stroke:#000000">
    <path
       d="m 69.98427741420522,1.937931207175893 -22.62499999999997,22.624999999999996 14.15625,14.12499999999978 -5.6875,5.6875 -14.125,-14.15624999999981 -22.62500000000002,22.62500000000004 14.12500000000002,14.15624999999977 -14.12500000000002,14.125 22.62500000000002,22.65625000000003 14.15625,-14.15625000000003 5.65625,5.65625 -14.15625,14.15625000000003 22.62500000000007,22.6250000000002 22.65625,-22.625 -14.15625,-14.15625 5.65625,-5.65625 14.15625,14.15625 22.62499999999987,-22.65624999999956 -14.15625,-14.12500000000067 14.1562499999994,-14.15624999999999 -22.62499999999937,-22.62499999999978 -14.15625,14.15624999999978 -5.65625,-5.65625 14.15625,-14.15624999999978 z m 0.03125,16.999999999999765 5.625,5.625 -5.65625,5.65625 -5.625,-5.625 z m -28.31249999999997,28.25000000000024 5.65625000000081,5.65625000000056 -5.65625,5.65625 -5.65625000000081,-5.65625000000056 z m 28.31249999999997,-2.2e-13 5.65625,5.65625 -5.6875,5.6875 -5.65625,-5.65625 z m 28.25000000000027,6.8e-13 5.68750000000051,5.6875000000001 -5.65625,5.65625 -5.68750000000051,-5.68750000000011 z m -14.125,14.125 5.68749999999973,5.68749999999932 -5.68749999999922,5.6875000000008 -5.68750000000051,-5.68750000000014 z m -28.28125000000024,0.03125 5.65625,5.65624999999932 -5.65625,5.65625000000021 -5.65625,-5.65625 z m 14.1250000000002,14.1250000000001 5.68750000000028,5.6875 -5.65625,5.65625 -5.68750000000028,-5.6875 z m 28.31249999999987,0 5.65624999999997,5.65625 -5.68749999999967,5.6875 -5.65625,-5.65625 z m -56.59374999999931,0.03125 5.65624999999922,5.65624999999943 -5.625,5.62500000000044 -5.65625,-5.65625 z m 28.28124999999945,28.28125000000004 5.65625,5.65625 -5.6250000000002,5.625 -5.65625,-5.65625 z"
       id="path1112"
       style="fill:#ffffff" />
    <path
       d="m 23.54787281957402,52.85367328227369 11.88823275869881,11.93242693252294 4.04376690491061,-4.04376690491037 -7.88866002761222,-7.88866002761257 10.12046580573214,-10.12046580573224 6.73961150818429,6.739611508184 3.38085429754853,3.38085429754824 4.02166981799838,4.02166981799849 3.38085429754814,3.38085429754812 4.5078057300641,4.50780573006453 3.9995727310865,-3.99957273108679 L 63.23424091366911,56.25662466673396 59.8533866161206,52.87577036918604 55.831716798122,48.85410055118745 52.4508625005741,45.47324625363899 41.7116782613033,34.68986784054424 23.54787281957398,52.85367328227368 z m 28.28427124746207,-28.2842712474619 11.91032984561059,11.91032984561117 4.02166981799859,-4.02166981799861 -7.88866002761226,-7.88866002761256 10.12046580573218,-10.12046580573224 10.12046580573269,10.12046580573224 -6.7175144212722,6.71751442127219 -3.40295138446049,3.40295138446027 -4.0216698179986,4.0216698179986 -3.38085429754789,3.38085429754814 -4.52990281697668,4.52990281697656 4.0216698179986,4.02166981799816 4.5299028169765,-4.52990281697636 3.38085429754811,-3.3808542975479 4.0216698179986,-4.0216698179986 3.40295138446038,-3.40295138446049 L 88.15975495049501,24.56940203481179 69.99594950876523,6.405596593082353 51.83214406703616,24.56940203481179 z M 23.54787281957397,81.1379445297356 41.68958117439127,99.32384705837705 53.62200810691388,87.39142012585411 49.60033828891597,83.36975030785548 41.73377534821566,91.23631324855567 31.61330954248308,81.11584744282346 l 6.03250472699762,-6.0325047269977 4.0437669049104,-4.04376690491061 4.04376690491069,-4.0437669049104 2.71794169018552,-2.71794169018584 5.1707183374267,-5.17071833742669 -4.02166981799798,-4.02166981799863 -4.33102903476788,4.33102903476766 -3.55763099284479,3.55763099284491 -4.0437669049104,4.04376690491036 -3.2040776022518,3.2040776022518 -10.91596093456714,10.91596093456727 z m 20.37351413293743,-7.86656294070056 4.50780573006409,4.50780573006446 0.022097086912,-0.022097086912 10.80547550000647,10.80547550000712 -0.022097086912,0.022097086912 4.50780573006421,4.50780573006499 4.04376690491039,-4.04376690491131 -4.52990281697678,-4.52990281697589 -3.3808542975479,-3.3808542975479 -4.0216698179986,-4.0216698179986 -3.40295138445969,-3.40295138446058 -4.48570864315242,-4.48570864315232 -4.0437669049104,4.0437669049104 z m 28.30636833437369,-28.30636833437367 4.48570864315231,4.4857086431523 0.022097086912,-0.022097086912 10.80547550000642,10.80547550000687 -0.022097086912,0.022097086912 4.52990281697602,4.52990281697667 4.02166981799857,-4.02166981799859 -4.52990281697599,-4.52990281697659 -3.38085429754868,-3.38085429754814 -4.0216698179978,-4.02166981799859 -3.40295138446051,-3.4029513844598 -4.48570864315239,-4.48570864315217 -4.0216698179986,4.02166981799847 z m -14.1421356237306,29.91945567895573 4.02166981799837,4.02166981799834 4.48570864315229,-4.48570864315204 -0.022097086912,-0.022097086912 10.80547550000712,-10.805475500006 0.022097086912,0.022097086912 4.52990281697612,-4.52990281697678 -4.02166981799847,-4.02166981799783 -4.52990281697618,4.52990281697602 -3.40295138446038,3.40295138446048 -3.99957273108613,3.99957273108583 -3.40295138446037,3.40295138446048 -4.48570864315212,4.48570864315242 z m 28.2842712474619,-28.28427124746189 4.02166981799837,4.02166981799838 7.88866002761222,-7.88866002761211 10.12046580573272,10.12046580573223 -6.7175144212722,6.7175144212722 0.022097086912,0.022097086912 -10.80547550000701,10.80547550000698 -0.022097086912,-0.022097086912 -4.52990281697666,4.52990281697656 4.02166981799857,4.02166981799813 4.52990281697673,-4.52990281697632 3.38085429754797,-3.38085429754791 4.0216698179986,-4.0216698179986 3.4029513844604,-3.40295138446059 10.7391842392708,-10.73918423927045 -18.16380544172981,-18.16380544172944 -11.9103298456107,11.91032984561095 z m -14.16423271064321,26.62698972905615 4.52990281697612,4.52990281697601 3.38085429754858,3.38085429754824 4.02166981799836,4.02166981799846 3.40295138445994,3.40295138446038 10.76128132618271,10.76128132618261 18.14170835481791,-18.18590252864145 -11.9103298456112,-11.91032984561105 -4.0216698179984,4.0216698179986 7.8886600276127,7.88866002761245 -10.14256289264478,10.14256289264461 -6.71751442127203,-6.71751442127223 -3.40295138446062,-3.40295138446004 -4.02166981799859,-4.0216698179987 -3.3808542975479,-3.38085429754834 -4.52990281697618,-4.52990281697635 -3.99957273108657,3.9995727310868 z M 51.8100469801235,109.4443128641098 69.97385242185322,127.608118305839 88.18185203740698,109.4443128641098 76.24942510488358,97.51188593158643 l -4.0437669049104,4.04376690491047 7.88866002761222,7.8886600276129 -10.0762716319078,10.0762716319083 -10.1204658057325,-10.1204658057327 6.69541733436011,-6.6954173343601 3.38085429754801,-3.38085429754824 4.04376690491061,-4.04376690491037 3.3808542975479,-3.38085429754851 4.50780573006439,-4.50780573006405 -4.02166981799809,-4.02166981799864 -4.50780573006473,4.50780573006466 0.022097086912,0.022097086912 -10.78337841309502,10.78337841309518 -0.022097086912,-0.022097086912 -10.78337841309519,10.78337841309457 z"
       id="path1114"
       style="fill:#ffffff;stroke-width:0.5" />
    <path
       d="m 70.01552741420522,47.18793120717578 8.46875,-8.46875 m -8.5,-8.50000000000012 -8.46874999999999,8.46875000000012"
       id="path1116"
       style="fill:#c3c7c8" />
    <path
       d="m 98.29677741420522,75.46918120717646 8.46874999999997,-8.4687500000007 m -8.46874999999997,-8.46874999999999 -8.46875,8.46874999999999"
       id="path1118"
       style="fill:#c3c7c8" />
    <path
       d="m 69.98427741420522,75.46918120717576 8.46875,-8.46875 m -8.46875,-8.46874999999987 -8.46874999999999,8.46874999999994"
       id="path1120"
       style="fill:#c3c7c8" />
    <path
       d="m 84.14052741420522,61.31293120717578 -8.46874999999977,-8.46875 m 8.46875,-8.46875 8.46874999999977,8.46875"
       id="path1122"
       style="fill:#c3c7c8" />
    <path
       d="m 84.14052741420458,89.62543120717576 -8.46874999999936,-8.46875 m 8.46875,-8.46875 8.46875,8.46875"
       id="path1124"
       style="fill:#c3c7c8" />
    <path
       d="m 69.98427741420522,103.7816812071759 8.5,-8.5 m -8.46875,-8.46875000000023 -8.49999999999999,8.46875"
       id="path1126"
       style="fill:#c3c7c8" />
    <path
       d="m 41.7030274142054,75.50043120717657 8.49999999999978,-8.50000000000081 m -8.5,-8.49999999999999 -8.5,8.49999999999977"
       id="path1128"
       style="fill:#c3c7c8" />
    <path
       d="m 55.85927741420523,89.62543120717576 -8.49999999999978,-8.46875 m 8.5,-8.5 8.46875,8.46875"
       id="path1130"
       style="fill:#c3c7c8" />
    <path
       d="m 55.85927741420523,61.34418120717578 -8.49999999999972,-8.49999999999932 m 8.46874999999972,-8.46875000000068 8.49999999999994,8.5"
       id="path1132"
       style="fill:#c3c7c8" />
  </g>
</svg>
