<?xml version="1.0" encoding="UTF-8" standalone="no"?>
<!-- Created with Inkscape (http://www.inkscape.org/) -->

<svg
   xmlns:dc="http://purl.org/dc/elements/1.1/"
   xmlns:cc="http://creativecommons.org/ns#"
   xmlns:rdf="http://www.w3.org/1999/02/22-rdf-syntax-ns#"
   xmlns:svg="http://www.w3.org/2000/svg"
   xmlns="http://www.w3.org/2000/svg"
   xmlns:sodipodi="http://sodipodi.sourceforge.net/DTD/sodipodi-0.dtd"
   xmlns:inkscape="http://www.inkscape.org/namespaces/inkscape"
   width="432pt"
   height="432pt"
   viewBox="0 0 152.39999 152.39999"
   version="1.1"
   id="svg8"
   inkscape:version="0.92.5 (2060ec1f9f, 2020-04-08)"
   sodipodi:docname="tibetan_knot_colored.svg">
  <defs
     id="defs2" />
  <sodipodi:namedview
     id="base"
     pagecolor="#ffffff"
     bordercolor="#666666"
     borderopacity="1.0"
     inkscape:pageopacity="0.0"
     inkscape:pageshadow="2"
     inkscape:zoom="1.4930556"
     inkscape:cx="288"
     inkscape:cy="288"
     inkscape:document-units="mm"
     inkscape:current-layer="layer1"
     showgrid="false"
     fit-margin-top="0"
     fit-margin-left="0"
     fit-margin-right="0"
     fit-margin-bottom="0"
     inkscape:window-width="1920"
     inkscape:window-height="1053"
     inkscape:window-x="-9"
     inkscape:window-y="-9"
     inkscape:window-maximized="1"
     units="pt" />
  <metadata
     id="metadata5">
    <rdf:RDF>
      <cc:Work
         rdf:about="">
        <dc:format>image/svg+xml</dc:format>
        <dc:type
           rdf:resource="http://purl.org/dc/dcmitype/StillImage" />
        <dc:title></dc:title>
      </cc:Work>
    </rdf:RDF>
  </metadata>
  <g
     inkscape:label="Layer 1"
     inkscape:groupmode="layer"
     id="layer1"
     transform="translate(-94.332472,21.04807)">
    <g
       id="g1387"
       transform="matrix(1.1034657,0,0,1.1034657,33.207643,-47.456422)">
      <g
         transform="matrix(0.58331998,0,0,0.58331998,83.616205,53.904661)"
         id="g816"
         style="stroke:#000000">
        <path
           inkscape:connector-curvature="0"
           d="m 69.984277,1.9379312 -22.625,22.6249998 14.15625,14.125 -5.6875,5.6875 -14.125,-14.15625 -22.625,22.625 14.125,14.15625 -14.125,14.125 22.625,22.656249 14.15625,-14.156249 5.65625,5.65625 -14.15625,14.156249 22.625,22.625 22.65625,-22.625 -14.15625,-14.156249 5.65625,-5.65625 14.15625,14.156249 22.625003,-22.656249 -14.15625,-14.125 14.15625,-14.15625 -22.625003,-22.625 -14.15625,14.15625 -5.65625,-5.65625 14.15625,-14.15625 z m 0.03125,16.9999998 5.625,5.625 -5.65625,5.65625 -5.625,-5.625 z m -28.3125,28.25 5.65625,5.65625 -5.65625,5.65625 -5.65625,-5.65625 z m 28.3125,0 5.65625,5.65625 -5.6875,5.6875 -5.65625,-5.65625 z m 28.25,0 5.687503,5.6875 -5.656253,5.65625 -5.6875,-5.6875 z m -14.125,14.125 5.6875,5.6875 -5.6875,5.6875 -5.6875,-5.6875 z m -28.28125,0.03125 5.65625,5.65625 -5.65625,5.65625 -5.65625,-5.65625 z m 14.125,14.125 5.6875,5.6875 -5.65625,5.65625 -5.6875,-5.6875 z m 28.3125,0 5.656253,5.65625 -5.687503,5.6875 -5.65625,-5.65625 z m -56.59375,0.03125 5.65625,5.65625 -5.625,5.625 -5.65625,-5.65625 z m 28.28125,28.281249 5.65625,5.65625 -5.625,5.625 -5.65625,-5.65625 z"
           id="path1112"
           style="fill:#ffffff" />
        <path
           inkscape:connector-curvature="0"
           d="m 23.547873,52.853673 11.888233,11.932427 4.043766,-4.043767 -7.88866,-7.88866 10.120466,-10.120466 6.739612,6.739612 3.380854,3.380854 4.02167,4.02167 3.380854,3.380854 4.507806,4.507806 3.999573,-3.999573 -4.507806,-4.507805 -3.380854,-3.380855 -4.02167,-4.021669 -3.380854,-3.380855 -10.739185,-10.783378 z m 28.284271,-28.284271 11.91033,11.91033 4.02167,-4.02167 -7.88866,-7.88866 10.120466,-10.120466 10.120465,10.120466 -6.717514,6.717514 -3.402951,3.402952 -4.02167,4.02167 -3.380855,3.380854 -4.529902,4.529903 4.021669,4.02167 4.529903,-4.529903 3.380855,-3.380855 4.021669,-4.021669 3.402952,-3.402952 L 88.159755,24.569402 69.99595,6.4055966 Z M 23.547873,81.137945 41.689581,99.323847 53.622008,87.39142 49.600338,83.36975 41.733775,91.236313 31.61331,81.115847 l 6.032504,-6.032504 4.043767,-4.043767 4.043767,-4.043767 2.717942,-2.717942 5.170718,-5.170718 -4.02167,-4.02167 -4.331029,4.331029 -3.557631,3.557631 -4.043767,4.043767 -3.204077,3.204078 z m 20.373514,-7.866563 4.507806,4.507805 0.0221,-0.0221 10.805475,10.805476 -0.0221,0.0221 4.507806,4.507806 4.043767,-4.043767 -4.529903,-4.529903 -3.380854,-3.380854 -4.02167,-4.02167 -3.402951,-3.402952 -4.485709,-4.485708 z m 28.306368,-28.306369 4.485709,4.485709 0.0221,-0.0221 10.805476,10.805475 -0.0221,0.0221 4.529903,4.529903 4.02167,-4.02167 -4.529903,-4.529902 -3.380854,-3.380855 -4.02167,-4.02167 -3.402951,-3.402951 -4.485709,-4.485709 z m -14.142135,29.919456 4.021669,4.02167 4.485709,-4.485709 -0.0221,-0.0221 10.805476,-10.805475 0.0221,0.0221 4.529902,-4.529903 -4.021669,-4.02167 -4.529903,4.529903 -3.402952,3.402951 -3.999572,3.999573 -3.402952,3.402951 z m 28.284271,-28.284271 4.02167,4.02167 7.88866,-7.888661 10.120469,10.120466 -6.71752,6.717515 0.0221,0.0221 -10.805476,10.805475 -0.0221,-0.0221 -4.529903,4.529903 4.02167,4.02167 4.529902,-4.529903 3.380855,-3.380854 4.021672,-4.02167 3.40295,-3.402951 10.73919,-10.739185 -18.163812,-18.163805 z m -14.164233,26.626989 4.529903,4.529903 3.380854,3.380855 4.02167,4.021669 3.402952,3.402952 10.761281,10.761281 18.141712,-18.185902 -11.91033,-11.91033 -4.02167,4.02167 7.88866,7.88866 -10.142566,10.142562 -6.717515,-6.717514 -3.402951,-3.402951 -4.02167,-4.02167 -3.380854,-3.380854 -4.529903,-4.529903 z m -20.395611,36.217123 18.163805,18.16381 18.208,-18.16381 -11.932427,-11.932424 -4.043767,4.043764 7.88866,7.88866 -10.076271,10.07627 -10.120466,-10.12046 6.695417,-6.69542 3.380854,-3.380853 4.043767,-4.043767 3.380855,-3.380854 4.507805,-4.507806 -4.021669,-4.02167 -4.507806,4.507806 0.0221,0.0221 -10.783379,10.783379 -0.0221,-0.0221 z"
           id="path1114"
           style="fill:#ffffff;stroke-width:0.5" />
        <path
           inkscape:connector-curvature="0"
           d="m 70.015527,47.187931 8.46875,-8.46875 m -8.5,-8.5 -8.46875,8.46875"
           id="path1116"
           style="fill:#c3c7c8" />
        <path
           inkscape:connector-curvature="0"
           d="m 98.296777,75.469181 8.468753,-8.46875 m -8.468753,-8.46875 -8.46875,8.46875"
           id="path1118"
           style="fill:#c3c7c8" />
        <path
           inkscape:connector-curvature="0"
           d="m 69.984277,75.469181 8.46875,-8.46875 m -8.46875,-8.46875 -8.46875,8.46875"
           id="path1120"
           style="fill:#c3c7c8" />
        <path
           inkscape:connector-curvature="0"
           d="m 84.140527,61.312931 -8.46875,-8.46875 m 8.46875,-8.46875 8.46875,8.46875"
           id="path1122"
           style="fill:#c3c7c8" />
        <path
           inkscape:connector-curvature="0"
           d="m 84.140527,89.625431 -8.46875,-8.46875 m 8.46875,-8.46875 8.46875,8.46875"
           id="path1124"
           style="fill:#c3c7c8" />
        <path
           inkscape:connector-curvature="0"
           d="m 69.984277,103.78168 8.5,-8.499999 m -8.46875,-8.46875 -8.5,8.46875"
           id="path1126"
           style="fill:#c3c7c8" />
        <path
           inkscape:connector-curvature="0"
           d="m 41.703027,75.500431 8.5,-8.5 m -8.5,-8.5 -8.5,8.5"
           id="path1128"
           style="fill:#c3c7c8" />
        <path
           inkscape:connector-curvature="0"
           d="m 55.859277,89.625431 -8.5,-8.46875 m 8.5,-8.5 8.46875,8.46875"
           id="path1130"
           style="fill:#c3c7c8" />
        <path
           inkscape:connector-curvature="0"
           d="m 55.859277,61.344181 -8.5,-8.5 m 8.46875,-8.46875 8.5,8.5"
           id="path1132"
           style="fill:#c3c7c8" />
      </g>
      <path
         transform="scale(0.26458333)"
         inkscape:connector-curvature="0"
         id="path1241"
         d="m 374.63754,334.8646 -14.63497,-14.63823 24.01691,-24.01691 24.01691,-24.01691 30.26093,30.26093 30.26093,30.26093 -1.77165,1.79869 -1.77165,1.79869 -28.57959,-28.57794 -28.5796,-28.57795 -20.53322,20.53555 -20.53322,20.53555 12.95078,12.95443 12.95078,12.95442 -1.70919,1.68349 -1.70919,1.68349 z"
         style="opacity:0.5;fill:#000000;fill-opacity:0;fill-rule:nonzero;stroke:none;stroke-width:0;stroke-linecap:butt;stroke-linejoin:miter;stroke-miterlimit:4;stroke-dasharray:none;stroke-opacity:1" />
      <path
         transform="scale(0.26458333)"
         inkscape:connector-curvature="0"
         id="path1291"
         d="m 456.07643,316.6607 -1.76702,-1.79399 28.38131,-28.40841 c 15.60973,-15.62462 28.45471,-28.48733 28.54442,-28.58381 0.21984,-0.23643 -40.42102,-40.86111 -40.87739,-40.86111 -0.46647,0 -40.89286,40.42573 -40.89286,40.89219 0,0.19478 5.74406,6.09987 12.76458,13.12242 l 12.76458,12.76827 -1.69523,1.69523 -1.69523,1.69523 -14.641,-14.64101 -14.64101,-14.641 24.01907,-24.0171 24.01908,-24.01709 24.01677,24.01875 24.01677,24.01874 -30.27491,30.27334 -30.27491,30.27334 z"
         style="opacity:0.5;fill:#87cefa;fill-opacity:1;fill-rule:nonzero;stroke:none;stroke-width:0;stroke-linecap:butt;stroke-linejoin:miter;stroke-miterlimit:4;stroke-dasharray:none;stroke-opacity:1" />
      <path
         transform="scale(0.26458333)"
         inkscape:connector-curvature="0"
         id="path1293"
         d="m 442.58338,303.17699 -1.69354,-1.69354 21.78866,-21.79082 21.78866,-21.79082 -7.05801,-7.0514 -7.05802,-7.05139 -7.13596,7.14266 -7.13596,7.14265 6.16201,6.16957 6.16201,6.16957 -1.7089,1.6832 -1.70889,1.6832 -7.93851,-7.94438 -7.9385,-7.94439 10.62687,-10.62245 10.62688,-10.62245 10.62219,10.62663 10.6222,10.62662 -23.48256,23.48054 c -12.91541,12.91429 -23.56458,23.48054 -23.66482,23.48054 -0.10025,0 -0.94436,-0.7621 -1.87581,-1.69354 z"
         style="opacity:0.5;fill:#87cefa;fill-opacity:1;fill-rule:nonzero;stroke:none;stroke-width:0;stroke-linecap:butt;stroke-linejoin:miter;stroke-miterlimit:4;stroke-dasharray:none;stroke-opacity:1" />
      <path
         transform="scale(0.26458333)"
         inkscape:connector-curvature="0"
         id="path1295"
         d="m 518.38648,378.97056 -1.58427,-1.61425 28.56248,-28.56415 28.56248,-28.56415 -20.35497,-20.35731 c -11.19523,-11.19653 -20.51538,-20.35732 -20.71144,-20.35732 -0.19607,0 -6.10231,5.74416 -13.12498,12.76481 l -12.7685,12.7648 -1.7856,-1.7856 -1.7856,-1.78561 14.6422,-14.63893 14.6422,-14.63893 24.01664,24.01664 24.01665,24.01665 -30.17722,30.1788 c -16.59747,16.59834 -30.26465,30.1788 -30.37151,30.1788 -0.10685,0 -0.90721,-0.72641 -1.77856,-1.61425 z"
         style="opacity:0.5;fill:#87cefa;fill-opacity:1;fill-rule:nonzero;stroke:none;stroke-width:0;stroke-linecap:butt;stroke-linejoin:miter;stroke-miterlimit:4;stroke-dasharray:none;stroke-opacity:1" />
      <path
         transform="scale(0.26458333)"
         inkscape:connector-curvature="0"
         id="path1297"
         d="m 505.06173,365.65534 -1.67189,-1.67189 21.78866,-21.79082 21.78866,-21.79082 -7.14375,-7.13705 -7.14375,-7.13706 -6.16957,6.16201 -6.16957,6.16202 -1.76984,-1.79686 -1.76984,-1.79686 7.9393,-7.93929 7.93929,-7.9393 10.60029,10.60029 10.60029,10.60029 -14.35521,14.62507 c -7.89537,8.04379 -18.50331,18.65191 -23.5732,23.57361 l -9.21798,8.94854 z"
         style="opacity:0.5;fill:#87cefa;fill-opacity:1;fill-rule:nonzero;stroke:none;stroke-width:0;stroke-linecap:butt;stroke-linejoin:miter;stroke-miterlimit:4;stroke-dasharray:none;stroke-opacity:1" />
      <path
         transform="scale(0.26458333)"
         inkscape:connector-curvature="0"
         id="path1299"
         d="m 502.3284,400.41261 -30.17062,-30.17221 1.77138,-1.79842 1.77138,-1.79843 28.40086,28.39921 c 15.62048,15.61956 28.55296,28.3992 28.73885,28.3992 0.18588,0 9.45344,-9.2009 20.59458,-20.44643 l 20.2566,-20.44643 -12.91357,-12.945 -12.91358,-12.94499 1.69216,-1.69216 1.69216,-1.69216 3.66172,3.5634 c 2.01394,1.95986 8.68429,8.54588 14.823,14.6356 l 11.16129,11.0722 -24.01744,24.01941 c -13.20959,13.21068 -24.0986,24.01941 -24.19779,24.01941 -0.0992,0 -13.75714,-13.57749 -30.35098,-30.1722 z"
         style="opacity:0.5;fill:#87cefa;fill-opacity:1;fill-rule:nonzero;stroke:none;stroke-width:0;stroke-linecap:butt;stroke-linejoin:miter;stroke-miterlimit:4;stroke-dasharray:none;stroke-opacity:1" />
      <path
         transform="scale(0.26458333)"
         inkscape:connector-curvature="0"
         id="path1301"
         d="m 509.01119,380.30969 -23.48738,-23.4894 1.79818,-1.77115 1.79818,-1.77114 21.77838,21.77618 21.77837,21.77619 7.14385,-7.13715 7.14385,-7.13715 -6.2548,-6.26205 -6.2548,-6.26205 1.70895,-1.68325 1.70895,-1.68326 8.0255,8.03146 8.02551,8.03146 -10.53082,10.53536 c -5.79195,5.79445 -10.61266,10.53536 -10.71268,10.53536 -0.10002,0 -10.75118,-10.57023 -23.66924,-23.48941 z"
         style="opacity:0.5;fill:#87cefa;fill-opacity:1;fill-rule:nonzero;stroke:none;stroke-width:0;stroke-linecap:butt;stroke-linejoin:miter;stroke-miterlimit:4;stroke-dasharray:none;stroke-opacity:1" />
      <path
         transform="scale(0.26458333)"
         inkscape:connector-curvature="0"
         id="path1303"
         d="m 446.339,469.06607 -24.01677,-24.01874 30.27491,-30.27334 30.27491,-30.27334 1.74763,1.7743 1.74763,1.77431 -28.45121,28.33566 c -15.64816,15.58461 -28.45121,28.49046 -28.45121,28.67966 0,0.18921 9.14792,9.49087 20.32871,20.67037 l 20.32871,20.32636 20.47486,-20.25768 c 11.26118,-11.14173 20.53493,-20.42913 20.60834,-20.63867 0.0734,-0.20954 -5.67476,-6.19085 -12.77371,-13.2918 l -12.90718,-12.91082 1.70918,-1.68347 1.70918,-1.68348 14.72494,14.72815 14.72494,14.72814 -24.01854,24.01657 -24.01855,24.01657 z"
         style="opacity:0.5;fill:#87cefa;fill-opacity:1;fill-rule:nonzero;stroke:none;stroke-width:0;stroke-linecap:butt;stroke-linejoin:miter;stroke-miterlimit:4;stroke-dasharray:none;stroke-opacity:1" />
      <path
         transform="scale(0.26458333)"
         inkscape:connector-curvature="0"
         id="path1305"
         d="m 459.73113,455.67251 -10.6222,-10.62662 23.569,-23.56697 23.56899,-23.56697 1.69538,1.69538 1.69537,1.69537 -21.7806,21.78279 -21.78059,21.78278 7.13841,7.14511 7.13841,7.14511 7.14261,-7.14262 7.14262,-7.14262 -6.24327,-6.25092 -6.24327,-6.25093 1.69402,-1.69403 1.69403,-1.69402 8.03448,8.03448 8.03448,8.03448 -10.62784,10.62341 -10.62784,10.62341 z"
         style="opacity:0.5;fill:#87cefa;fill-opacity:1;fill-rule:nonzero;stroke:none;stroke-width:0;stroke-linecap:butt;stroke-linejoin:miter;stroke-miterlimit:4;stroke-dasharray:none;stroke-opacity:1" />
      <path
         transform="scale(0.26458333)"
         inkscape:connector-curvature="0"
         id="path1307"
         d="m 383.839,406.56607 -24.01677,-24.01874 30.27491,-30.27334 30.27491,-30.27334 1.77139,1.79842 1.77138,1.79843 -28.45002,28.4758 -28.45001,28.4758 20.24291,20.45822 c 11.1336,11.25201 20.4028,20.45291 20.59821,20.44642 0.19542,-0.006 6.08509,-5.7399 13.08814,-12.74093 l 12.73282,-12.72914 1.01901,0.72994 c 0.56046,0.40147 1.41417,1.15333 1.89714,1.67081 l 0.87813,0.94087 -14.62649,14.62976 c -8.04458,8.04637 -14.70804,14.62976 -14.8077,14.62976 -0.0997,0 -10.98874,-10.80843 -24.19796,-24.01874 z"
         style="opacity:0.5;fill:#87cefa;fill-opacity:1;fill-rule:nonzero;stroke:none;stroke-width:0;stroke-linecap:butt;stroke-linejoin:miter;stroke-miterlimit:4;stroke-dasharray:none;stroke-opacity:1" />
      <path
         transform="scale(0.26458333)"
         inkscape:connector-curvature="0"
         id="path1309"
         d="m 397.40905,393.35044 c -5.74429,-5.74677 -10.43931,-10.60837 -10.43338,-10.80357 0.006,-0.1952 10.53038,-10.87796 23.38767,-23.73946 l 23.37689,-23.38454 1.79712,1.7701 1.79712,1.7701 -21.79307,21.79523 -21.79306,21.79523 7.14375,7.13705 7.14375,7.13706 6.16957,-6.16202 6.16957,-6.16201 1.76883,1.79583 1.76882,1.79584 -7.84582,7.85191 c -4.31521,4.31855 -7.92858,7.85191 -8.02972,7.85191 -0.10113,0 -4.88375,-4.7019 -10.62804,-10.44866 z"
         style="opacity:0.5;fill:#87cefa;fill-opacity:1;fill-rule:nonzero;stroke:none;stroke-width:0;stroke-linecap:butt;stroke-linejoin:miter;stroke-miterlimit:4;stroke-dasharray:none;stroke-opacity:1" />
      <path
         transform="scale(0.26458333)"
         inkscape:connector-curvature="0"
         id="path1313"
         d="m 374.63754,334.8646 -14.63497,-14.63823 24.01691,-24.01691 24.01691,-24.01691 30.26093,30.26093 30.26093,30.26093 -1.77165,1.79869 -1.77165,1.79869 -28.57959,-28.57794 -28.5796,-28.57795 -20.53322,20.53555 -20.53322,20.53555 12.95078,12.95443 12.95078,12.95442 -1.70919,1.68349 -1.70919,1.68349 z"
         style="opacity:0.5;fill:#87cefa;fill-opacity:1;fill-rule:nonzero;stroke:none;stroke-width:0;stroke-linecap:butt;stroke-linejoin:miter;stroke-miterlimit:4;stroke-dasharray:none;stroke-opacity:1" />
      <path
         transform="scale(0.26458333)"
         inkscape:connector-curvature="0"
         id="path1315"
         d="m 429.64347,327.72767 -21.78352,-21.78571 -7.14149,7.14149 -7.14149,7.14149 6.24327,6.25093 6.24327,6.25093 -1.69402,1.69401 -1.69401,1.69401 -7.9437,-7.9437 -7.94371,-7.9437 10.62399,-10.62399 10.624,-10.624 23.56597,23.56395 23.56598,23.56395 -1.67742,1.70303 c -0.92258,0.93666 -1.76431,1.70302 -1.87051,1.70302 -0.10621,0 -9.99568,-9.80357 -21.97661,-21.78571 z"
         style="opacity:0.5;fill:#87cefa;fill-opacity:1;fill-rule:nonzero;stroke:none;stroke-width:0;stroke-linecap:butt;stroke-linejoin:miter;stroke-miterlimit:4;stroke-dasharray:none;stroke-opacity:1" />
      <path
         transform="scale(0.26458333)"
         inkscape:connector-curvature="0"
         id="path1317"
         d="m 430.79132,391.01839 -20.98168,-20.98394 1.70929,-1.68358 1.70928,-1.68358 20.98168,20.98394 20.98168,20.98394 -1.70928,1.68358 -1.70929,1.68358 z"
         style="opacity:0.5;fill:#87cefa;fill-opacity:1;fill-rule:nonzero;stroke:none;stroke-width:0;stroke-linecap:butt;stroke-linejoin:miter;stroke-miterlimit:4;stroke-dasharray:none;stroke-opacity:1" />
      <path
         transform="scale(0.26458333)"
         inkscape:connector-curvature="0"
         id="path1319"
         d="m 444.10953,377.55088 -20.88879,-20.89108 1.69566,-1.69567 1.69567,-1.69567 20.97226,20.97227 20.97226,20.97226 -1.58449,1.61448 c -0.87148,0.88797 -1.67209,1.61449 -1.77914,1.61449 -0.10705,0 -9.5946,-9.40099 -21.08343,-20.89108 z"
         style="opacity:0.5;fill:#87cefa;fill-opacity:1;fill-rule:nonzero;stroke:none;stroke-width:0;stroke-linecap:butt;stroke-linejoin:miter;stroke-miterlimit:4;stroke-dasharray:none;stroke-opacity:1" />
      <path
         transform="scale(0.26458333)"
         inkscape:connector-curvature="0"
         id="path1321"
         d="m 442.58199,365.66744 -1.67748,-1.70309 20.98394,-20.98168 20.98395,-20.98168 1.77106,1.7981 1.77105,1.7981 -20.88438,20.88667 c -11.48641,11.48767 -20.97129,20.88667 -21.07752,20.88667 -0.10623,0 -0.94801,-0.76639 -1.87062,-1.70309 z"
         style="opacity:0.5;fill:#87cefa;fill-opacity:1;fill-rule:nonzero;stroke:none;stroke-width:0;stroke-linecap:butt;stroke-linejoin:miter;stroke-miterlimit:4;stroke-dasharray:none;stroke-opacity:1" />
      <path
         transform="scale(0.26458333)"
         inkscape:connector-curvature="0"
         id="path1323"
         d="m 455.88626,378.97033 -1.5845,-1.61449 20.96785,-20.96785 20.96785,-20.96784 1.79552,1.76852 1.79552,1.76852 -20.8068,20.81208 c -11.44375,11.44664 -20.97424,20.81286 -21.17888,20.81381 -0.20463,10e-4 -1.08509,-0.72479 -1.95656,-1.61275 z"
         style="opacity:0.5;fill:#87cefa;fill-opacity:1;fill-rule:nonzero;stroke:none;stroke-width:0;stroke-linecap:butt;stroke-linejoin:miter;stroke-miterlimit:4;stroke-dasharray:none;stroke-opacity:1" />
      <path
         transform="scale(0.26458333)"
         inkscape:connector-curvature="0"
         id="path1325"
         d="m 506.50561,315.30411 -20.98168,-20.98394 1.70928,-1.68358 1.70929,-1.68359 20.98168,20.98394 20.98168,20.98395 -1.70929,1.68358 -1.70928,1.68358 z"
         style="opacity:0.5;fill:#87cefa;fill-opacity:1;fill-rule:nonzero;stroke:none;stroke-width:0;stroke-linecap:butt;stroke-linejoin:miter;stroke-miterlimit:4;stroke-dasharray:none;stroke-opacity:1" />
      <path
         transform="scale(0.26458333)"
         inkscape:connector-curvature="0"
         id="path1327"
         d="m 493.0381,328.6223 -20.88879,-20.89108 1.69337,-1.69337 1.69338,-1.69338 4.91084,4.81579 c 14.80807,14.52142 19.18652,18.88871 27.67197,27.60146 l 9.32011,9.56976 -1.56141,1.59095 c -0.85877,0.87503 -1.64899,1.59095 -1.75604,1.59095 -0.10705,0 -9.5946,-9.40098 -21.08343,-20.89108 z"
         style="opacity:0.5;fill:#87cefa;fill-opacity:1;fill-rule:nonzero;stroke:none;stroke-width:0;stroke-linecap:butt;stroke-linejoin:miter;stroke-miterlimit:4;stroke-dasharray:none;stroke-opacity:1" />
      <path
         transform="scale(0.26458333)"
         inkscape:connector-curvature="0"
         id="path1329"
         d="m 511.78667,372.37088 -3.92183,-3.93403 24.10276,-24.10474 24.10276,-24.10475 -11.69454,-11.69454 -11.69453,-11.69453 -8.48762,8.48208 -8.48761,8.48209 -3.92078,-3.93298 -3.92079,-3.93298 12.40746,-12.40746 12.40746,-12.40746 19.55311,19.55311 19.55311,19.5531 -28.03856,28.03857 -28.03856,28.03856 z"
         style="opacity:0.5;fill:#4169e1;fill-opacity:1;fill-rule:nonzero;stroke:none;stroke-width:0;stroke-linecap:butt;stroke-linejoin:miter;stroke-miterlimit:4;stroke-dasharray:none;stroke-opacity:1" />
      <path
         transform="scale(0.26458333)"
         inkscape:connector-curvature="0"
         id="path1331"
         d="m 449.37193,309.9564 -3.83078,-3.8427 23.92616,-23.92416 c 13.15938,-13.15828 23.92615,-24.08626 23.92615,-24.28439 0,-0.46877 -22.57099,-23.03462 -23.03986,-23.03462 -0.4636,0 -23.03157,22.57132 -23.03157,23.03498 0,0.19376 3.7346,4.08942 8.2991,8.65703 l 8.2991,8.30474 -3.9201,3.9323 -3.92011,3.9323 -12.41506,-12.41126 -12.41506,-12.41126 19.55271,-19.55514 19.55271,-19.55513 19.55497,19.55254 19.55497,19.55255 -27.94576,27.94746 c -15.37017,15.3711 -28.02924,27.94746 -28.13127,27.94746 -0.10204,0 -1.90937,-1.72922 -4.0163,-3.8427 z"
         style="opacity:0.5;fill:#4169e1;fill-opacity:1;fill-rule:nonzero;stroke:none;stroke-width:0;stroke-linecap:butt;stroke-linejoin:miter;stroke-miterlimit:4;stroke-dasharray:none;stroke-opacity:1" />
      <path
         transform="scale(0.26458333)"
         inkscape:connector-curvature="0"
         id="path1333"
         d="m 497.64036,324.13716 -20.93168,-20.98657 3.88096,-3.86894 3.88097,-3.86893 20.9781,20.9781 20.9781,20.9781 -3.92739,3.87741 -3.92739,3.8774 z"
         style="opacity:0.5;fill:#4169e1;fill-opacity:1;fill-rule:nonzero;stroke:none;stroke-width:0;stroke-linecap:butt;stroke-linejoin:miter;stroke-miterlimit:4;stroke-dasharray:none;stroke-opacity:1" />
      <path
         transform="scale(0.26458333)"
         inkscape:connector-curvature="0"
         id="path1335"
         d="m 449.28595,372.37015 -3.92172,-3.93392 20.9781,-20.9781 20.9781,-20.9781 3.92895,3.92895 3.92895,3.92895 -20.98533,20.98307 -20.98533,20.98307 z"
         style="opacity:0.5;fill:#4169e1;fill-opacity:1;fill-rule:nonzero;stroke:none;stroke-width:0;stroke-linecap:butt;stroke-linejoin:miter;stroke-miterlimit:4;stroke-dasharray:none;stroke-opacity:1" />
      <path
         transform="scale(0.26458333)"
         inkscape:connector-curvature="0"
         id="path1337"
         d="m 504.8235,393.6288 -28.03425,-28.04276 3.83836,-3.83837 3.83837,-3.83836 24.10675,24.10477 24.10676,24.10477 11.69453,-11.69453 11.69454,-11.69454 -8.5673,-8.57289 -8.56731,-8.57288 3.92813,-3.92814 3.92814,-3.92813 12.4812,12.48502 12.4812,12.48502 -19.44744,19.48689 -19.44743,19.48689 z"
         style="opacity:0.5;fill:#4169e1;fill-opacity:1;fill-rule:nonzero;stroke:none;stroke-width:0;stroke-linecap:butt;stroke-linejoin:miter;stroke-miterlimit:4;stroke-dasharray:none;stroke-opacity:1" />
      <path
         transform="scale(0.26458333)"
         inkscape:connector-curvature="0"
         id="path1339"
         d="m 381.24984,332.54833 -12.31831,-12.32219 19.46374,-19.46375 19.46374,-19.46374 28.03362,28.03533 28.03362,28.03532 -3.83837,3.83837 -3.83836,3.83836 -24.10675,-24.10477 -24.10676,-24.10477 -11.69454,11.69453 -11.69453,11.69454 8.48208,8.48761 8.48209,8.48762 -3.8468,3.83487 c -2.11574,2.10917 -3.9254,3.83487 -4.02148,3.83487 -0.0961,0 -5.71792,-5.54499 -12.49299,-12.3222 z"
         style="opacity:0.5;fill:#4169e1;fill-opacity:1;fill-rule:nonzero;stroke:none;stroke-width:0;stroke-linecap:butt;stroke-linejoin:miter;stroke-miterlimit:4;stroke-dasharray:none;stroke-opacity:1" />
      <path
         transform="scale(0.26458333)"
         inkscape:connector-curvature="0"
         id="path1341"
         d="m 388.39295,402.19144 -19.46169,-19.46415 28.03325,-28.03496 28.03326,-28.03496 3.9285,3.9285 3.9285,3.92851 -24.0169,24.01888 -24.01691,24.01888 11.60728,11.60317 11.60729,11.60316 8.39369,-8.38798 8.39368,-8.38798 3.9281,3.9281 3.92811,3.9281 -12.41224,12.40844 -12.41224,12.40843 z"
         style="opacity:0.5;fill:#4169e1;fill-opacity:1;fill-rule:nonzero;stroke:none;stroke-width:0;stroke-linecap:butt;stroke-linejoin:miter;stroke-miterlimit:4;stroke-dasharray:none;stroke-opacity:1" />
      <path
         transform="scale(0.26458333)"
         inkscape:connector-curvature="0"
         id="path1343"
         d="m 435.18165,386.48015 -20.88809,-20.89038 3.92134,-3.93354 3.92134,-3.93353 20.98341,20.98115 20.98341,20.98114 -3.83085,3.84277 c -2.10697,2.11352 -3.91446,3.84277 -4.01666,3.84277 -0.10219,0 -9.58545,-9.40067 -21.0739,-20.89038 z"
         style="opacity:0.5;fill:#4169e1;fill-opacity:1;fill-rule:nonzero;stroke:none;stroke-width:0;stroke-linecap:butt;stroke-linejoin:miter;stroke-miterlimit:4;stroke-dasharray:none;stroke-opacity:1" />
      <path
         transform="scale(0.26458333)"
         inkscape:connector-curvature="0"
         id="path1345"
         d="m 450.62456,464.42306 -19.37359,-19.37603 28.03291,-28.03121 28.03291,-28.0312 3.93375,3.92155 3.93375,3.92156 -24.01958,24.02155 -24.01957,24.02156 11.69488,11.69488 11.69489,11.69489 11.42927,-11.42509 c 6.28611,-6.2838 11.42928,-11.58552 11.42928,-11.78159 0,-0.19608 -3.77754,-4.13651 -8.39454,-8.75651 l -8.39453,-8.40001 3.93298,-3.92079 3.93299,-3.92079 12.50514,12.50514 12.50513,12.50514 -19.41544,19.36649 c -10.67849,10.65157 -19.56205,19.3665 -19.74124,19.3665 -0.17919,0 -9.04392,-8.71922 -19.69939,-19.37604 z"
         style="opacity:0.5;fill:#4169e1;fill-opacity:1;fill-rule:nonzero;stroke:none;stroke-width:0;stroke-linecap:butt;stroke-linejoin:miter;stroke-miterlimit:4;stroke-dasharray:none;stroke-opacity:1" />
    </g>
  </g>
</svg>
