<?xml version="1.0" encoding="UTF-8" standalone="no"?>
<!-- Created with Inkscape (http://www.inkscape.org/) -->

<svg
   xmlns:dc="http://purl.org/dc/elements/1.1/"
   xmlns:cc="http://creativecommons.org/ns#"
   xmlns:rdf="http://www.w3.org/1999/02/22-rdf-syntax-ns#"
   xmlns:svg="http://www.w3.org/2000/svg"
   xmlns="http://www.w3.org/2000/svg"
   xmlns:sodipodi="http://sodipodi.sourceforge.net/DTD/sodipodi-0.dtd"
   xmlns:inkscape="http://www.inkscape.org/namespaces/inkscape"
   width="108pt"
   height="108pt"
   viewBox="0 0 108 108"
   version="1.1"
   id="svg8"
   inkscape:version="0.92.5 (2060ec1f9f, 2020-04-08)"
   sodipodi:docname="resized.svg">
  <defs
     id="defs2" />
  <sodipodi:namedview
     id="base"
     pagecolor="#ffffff"
     bordercolor="#666666"
     borderopacity="1.0"
     inkscape:pageopacity="0.0"
     inkscape:pageshadow="2"
     inkscape:zoom="3.959798"
     inkscape:cx="-56.629023"
     inkscape:cy="60"
     inkscape:document-units="mm"
     inkscape:current-layer="layer1"
     showgrid="false"
     units="pt"
     inkscape:window-width="1920"
     inkscape:window-height="1053"
     inkscape:window-x="-9"
     inkscape:window-y="-9"
     inkscape:window-maximized="1"
     viewbox-y="0" />
  <metadata
     id="metadata5">
    <rdf:RDF>
      <cc:Work
         rdf:about="">
        <dc:format>image/svg+xml</dc:format>
        <dc:type
           rdf:resource="http://purl.org/dc/dcmitype/StillImage" />
        <dc:title></dc:title>
      </cc:Work>
    </rdf:RDF>
  </metadata>
  <g
     inkscape:label="Layer 1"
     inkscape:groupmode="layer"
     id="layer1"
     transform="translate(0,-258.89998)">
    <g
       id="g901"
       transform="matrix(0.74470248,0,0,0.74470248,26.013798,254.179)">
      <path
         id="path863"
         d="m 385.88,464.96 a 78.792,78.792 0 1 1 -157.58,0 78.792,78.792 0 1 1 157.58,0 z"
         transform="matrix(0.50767,0,0,0.50766,-118.32,-157.19)"
         inkscape:connector-curvature="0"
         style="fill:#ffeb64" />
      <path
         id="path865"
         d="m 27.983,58.207 c 7.1414,-1.8576 -3.8739,-19.356 10,-19.348 13.8739,0.008 3.9056,17.659 9.9612,19.552 -5.7598,3.014 -15.758,2.3705 -19.961,-0.20383 z"
         inkscape:connector-curvature="0"
         style="fill:#673325" />
      <path
         id="path867"
         d="m 38.096,39.059 c -2.7915,0.0427 -5.6743,1.2619 -6.3522,3.5968 -1.0596,4.525 0.81638,9.8859 3.113,13.146 0.07984,4.6473 -4.3533,6.607 -7.1515,7.7194 -4.1417,1.9116 -5.0028,3.9326 -5.0481,8.6238 -0.02796,2.8971 -1.7448,7.8929 -2.3721,10.353 -1.2159,4.7677 -2.7454,4.6025 -4.9622,8.6211 -3.2356,5.8653 -4.3311,10.946 -8.3779,15.458 -0.80369,-0.39664 -1.3023,-0.007 -1.9561,0.48378 -1.0127,0.7283 -1.7821,1.5506 -2.6603,2.4288 -0.25981,0.22273 -0.58935,0.30847 -0.91544,0.3056 0.07941,0.37577 0.17315,0.51283 0.42068,0.42067 0.75162,-0.29531 1.6349,-1.2051 1.893,-1.0517 -0.11689,1.7163 -2.4615,4.1208 -3.4712,6.1223 -0.47662,0.9537 -0.21735,1.0977 0.21305,0.87963 -0.53993,0.87237 -0.10158,1.1046 0.42991,0.26326 -0.01353,0.49785 0.14167,0.55153 0.51458,0.0966 0.94503,-1.2674 1.9308,-2.6073 2.9447,-3.7861 -0.83083,1.4682 -2.4731,3.5831 -2.1034,3.7861 0.59461,0.091 1.2669,-1.4011 1.6869,-1.997 1.2881,-1.9516 2.4644,-3.0989 3.5716,-4.9442 l 0.63101,-1.6827 c 4.3765,-4.5331 8.9965,-9.4006 11.989,-14.303 2.412,-3.9511 3.1434,-5.9501 4.1531,-9.8131 0.97632,-3.7354 2.5477,-10.169 4.4708,-13.534 5.0755,2.0253 12.363,2.1448 17.248,-1.262 2.5638,3.2956 4.0938,10.725 5.1178,14.947 0.86542,3.5684 2.1265,5.8257 3.8935,9.0241 3.5627,6.4489 7.5901,10.298 12.023,14.731 0.16514,0.99208 0.69925,2.0058 1.1257,2.75 1.5964,2.1042 2.4116,3.1928 3.9926,5.3481 0.2585,0.38041 0.44359,0.48716 0.77118,0.81399 0.49931,-0.56093 -1.5617,-2.7446 -2.1034,-3.864 1.1242,1.2485 2.1018,2.4168 3.1551,3.7861 0.27996,0.35314 0.73625,0.15626 0.49342,-0.34006 0.47453,0.78603 0.69659,-0.0303 0.32331,-0.60924 0.35751,0.28025 0.45083,0.0263 0.23496,-0.52307 -0.46287,-0.91033 -0.92695,-1.7607 -1.4724,-2.524 -0.75655,-1.1076 -2.5071,-3.0361 -2.1034,-3.3654 0.28496,-0.25947 0.9726,0.50817 1.4724,0.84135 0.58046,0.36097 0.95208,0.17491 1.0517,-0.21034 -0.28841,-0.0125 -0.64034,-0.10903 -0.99713,-0.42454 -0.86566,-0.89813 -1.6967,-1.428 -2.5786,-2.3098 -0.70344,-0.56908 -1.1861,-0.68472 -1.9982,-0.52585 -4.2422,-4.2567 -5.9138,-11.306 -8.6593,-15.794 -2.2723,-3.7142 -2.9433,-3.5876 -4.4246,-7.65 -0.9334,-2.5596 -2.4978,-8.174 -2.5702,-10.947 -0.13275,-5.0822 -1.3352,-7.3983 -5.8163,-8.8312 -4.155,-1.2491 -5.8317,-3.545 -6.3992,-7.449 3.1835,-3.5393 4.0154,-9.258 3.3654,-13.377 -0.31443,-2.3382 -3.0138,-3.4712 -5.8053,-3.4285 z"
         inkscape:connector-curvature="0"
         style="fill:#d39a59" />
      <path
         id="path869"
         d="m 27.721,63.434 c -0.59844,0.06001 -1.1156,0.37442 -1.5172,0.79118 1.9719,3.6328 2.7298,5.8539 2.8956,8.3564 0.35526,3.7172 1.4818,7.5368 1.5925,8.8895 0.27018,7.1143 0.09341,12.527 -3.6597,19.658 -6.7652,1.8128 -13.203,4.6824 -19.35,8.0137 -0.34447,1.1309 -2.1468,3.057 -3.7451,5.3841 3.1297,7.08 25.451,-0.83731 34.9,-2.4442 8.5514,0.69051 32.078,12.123 33.307,3.6758 -1.4286,-1.8607 -2.7295,-3.7195 -3.9847,-5.3558 -6.101,-4.2384 -13.066,-6.9132 -20.01,-9.4208 -3.586,-7.4006 -6.4925,-10.279 -4.4905,-19.593 0.24108,-1.2564 1.9761,-4.9028 1.9041,-8.8795 -0.03486,-2.8836 1.0008,-5.1216 2.6707,-8.7184 -0.37346,-0.30853 -0.82543,-0.54396 -1.4408,-0.52316 -0.88501,4.4251 -5.9229,6.4855 -10.023,6.4576 -4.1001,-0.0279 -6.946,-2.0511 -9.0499,-6.292 z"
         inkscape:connector-curvature="0"
         style="fill:#ffa433" />
      <path
         id="path871"
         d="m 44.738,108.73 c 1.6671,-1.1887 3.3647,-2.6763 5.258,-2.7342 l 2.3135,0.21032 c 0.96897,-0.0612 1.7994,-0.36071 2.5238,-0.52306 0.88154,-0.10454 1.6301,0.3398 1.6826,1.154 -1.8441,0.4362 -3.0732,0.82089 -4.8373,1.2619 -0.58708,0.17354 -1.0319,0.45596 -1.4722,0.84129 -1.9902,0.0197 -3.4093,-0.0259 -5.4683,-0.21032 z"
         inkscape:connector-curvature="0"
         style="fill:#d39a59" />
      <path
         id="path873"
         d="m 28.148,104.64 c -1.0308,-0.68966 -4.0487,1.7495 -6.334,2.2065 -0.76611,0.12099 -1.4782,-0.43638 -2.3135,-0.42065 -1.0459,0.0438 -1.9028,0.63843 -2.7342,1.2619 -1.1456,-0.13322 -2.2856,0.1619 -2.3135,1.0516 0.49171,0.53652 1.4718,0.13863 2.7135,0.2347 2.9325,0.16406 5.1542,1.0455 7.7612,1.4028 3.1082,0.42319 5.4813,-0.0345 8.2438,0.88634 h 0.21032 c 0.41128,-1.1039 0.52394,-1.9111 0.42064,-3.1548 -5.4347,-0.62242 -3.9492,-1.8241 -5.6542,-3.4685 z"
         inkscape:connector-curvature="0"
         style="fill:#d39a59" />
      <path
         id="path875"
         d="m 33.356,111.24 c 3.0692,0.0462 6.1904,0.0174 9.1783,0.63865 4.439,1.0266 7.7806,1.8676 11.987,3.0573 2.8812,0.77697 4.5264,1.2142 6.6442,1.8754 2.9054,0.89635 3.9062,1.0446 6.9039,1.0896 1.284,0.029 2.0305,-0.14099 3.0394,-0.11607 -0.87093,0.59548 -2.0523,0.89272 -3.1,1.035 -2.3684,0.13991 -5.0103,-0.40912 -7.3209,-0.87023 -1.5683,-0.23133 -3.997,-1.0524 -6.4215,-1.7725 -3.5972,-1.07 -8.171,-2.5157 -12.785,-3.678 -2.9094,-0.62124 -6.9645,-1.0329 -8.1254,-1.2591 z"
         inkscape:connector-curvature="0"
         style="fill:#ff8d00" />
      <path
         id="path877"
         d="m 33.80075,108.117 c 3.32179,0.48832 5.88399,0.8278 9.04471,0.8278 0.87022,0.003 1.31083,-0.14633 1.89287,-0.21032 0.70076,-0.0701 1.22447,-0.23139 2.1032,-0.21032 3.27414,0.0524 5.62238,0.20283 8.8334,0.63097 3.60202,0.56533 6.61523,0.94318 10.09532,2.10323 -3.28334,-0.57158 -6.58362,-1.02207 -9.885,-1.47226 -3.08915,-0.43462 -6.34791,-0.15033 -9.04372,-0.21033 -1.72738,-0.0682 -3.27451,-0.12246 -5.25798,-0.21032 -2.62242,-0.15015 -5.35306,-0.49904 -7.7828,-1.24845 z"
         inkscape:connector-curvature="0"
         style="fill:#ff8d00" />
      <path
         id="path879"
         d="m 11.745,116.24 c 2.3543,-0.045 5.1754,-0.47439 7.5166,-0.74453 2.8816,-0.36593 6.061,-1.077 9.0868,-1.614 l 9.27,-1.6122 c -2.8744,0.7138 -6.3084,1.5166 -9.1827,2.2177 -3.0297,0.66876 -5.0207,1.1806 -9.0901,2.0065 -2.4089,0.45293 -5.1183,0.86274 -7.6269,0.86855 -2.48,-0.007 -6.4356,-0.0308 -7.6723,-2.6824 2.295,1.7342 5.0811,1.5458 7.6987,1.5604 z"
         inkscape:connector-curvature="0"
         style="fill:#ff8d00" />
      <path
         id="path881"
         d="m 39.937,48.195 c -2.1436,1.2532 -1.1787,3.0647 -0.91288,5.205 0.0034,-3.2654 -0.29634,-3.4132 0.91288,-5.205 z"
         inkscape:connector-curvature="0"
         style="fill:#bb783f" />
      <path
         id="path883"
         d="m 36.55473,54.64803 c 0.5471,-0.1105 0.86806,-0.37434 1.38128,-0.02872 0.77437,-0.35904 0.87604,-0.06042 1.5967,0.1152 -1.44871,0.87643 -1.74638,0.97759 -2.97798,-0.08648 z"
         inkscape:connector-curvature="0"
         style="fill:#d37465" />
      <path
         id="path885"
         d="m 32.46,51.138 c -0.9941,-5.5313 0.5047,-7.4044 5.5164,-7.3032 5.0117,0.1012 6.2873,4.7222 5.2409,7.2205 3.6428,-4.5711 2.2499,-12.144 -5.2971,-12.199 -7.547,-0.055 -7.7749,7.3184 -5.4602,12.281 z"
         inkscape:connector-curvature="0"
         style="fill:#673325" />
      <path
         id="path887"
         d="m 33.42738,48.75504 c 1.06309,0.67961 1.72226,0.79386 3.20553,0.70204 -1.53231,0.67471 -2.64146,0.3817 -3.20553,-0.70204 z"
         inkscape:connector-curvature="0" />
      <path
         id="path889"
         d="m 81.83827,47.70995 c 0,0.10334 -0.14821,0.18711 -0.33104,0.18711 -0.18283,0 -0.33104,-0.08377 -0.33104,-0.18711 0,-0.10334 0.14821,-0.18711 0.33104,-0.18711 0.18283,0 0.33104,0.08377 0.33104,0.18711 z"
         transform="matrix(0.67308,0,0,0.67308,-17.443,21.077)"
         inkscape:connector-curvature="0"
         style="fill:#bb783f" />
      <path
         id="path891"
         d="m 81.83827,47.70995 c 0,0.10334 -0.14821,0.18711 -0.33104,0.18711 -0.18283,0 -0.33104,-0.08377 -0.33104,-0.18711 0,-0.10334 0.14821,-0.18711 0.33104,-0.18711 0.18283,0 0.33104,0.08377 0.33104,0.18711 z"
         transform="matrix(0.67308,0,0,0.67308,-16.416,21.077)"
         inkscape:connector-curvature="0"
         style="fill:#bb783f" />
      <path
         id="path893"
         d="m 42.53064,48.75504 c -1.06309,0.67961 -1.72226,0.79386 -3.20553,0.70204 1.53231,0.67471 2.64146,0.3817 3.20553,-0.70204 z"
         inkscape:connector-curvature="0" />
      <path
         id="path895"
         d="m 35.094,55.957 c 1.5468,2.3007 2.2101,2.2025 2.7414,2.2213 0.5313,0.0188 1.8456,-0.20228 2.4084,-2.1738 -2.105,1.7883 -3.6518,0.95211 -5.1498,-0.04747 z"
         inkscape:connector-curvature="0"
         style="fill:#bb783f" />
      <path
         id="path897"
         d="m 27.092,101.16 c 1.1457,0.28852 2.0561,0.95337 2.8704,1.7722 -0.5056,-1.2111 -1.3048,-2.0185 -2.8704,-1.7722 z"
         inkscape:connector-curvature="0"
         style="fill:#ff8d00" />
      <path
         id="path899"
         d="m 48.158,101.01 c -1.1704,-0.0411 -2.041,0.60722 -2.5459,2.0966 0.82629,-0.92542 1.6545,-1.7622 2.5459,-2.0966 z"
         inkscape:connector-curvature="0"
         style="fill:#ff8d00" />
    </g>
  </g>
</svg>
